<?xml version="1.0" encoding="UTF-8"?><svg id="Layer_2" xmlns="http://www.w3.org/2000/svg" viewBox="0 0 860.25 231.36"><defs><style>.cls-1{fill:#4c4c4c;stroke-width:0px;}</style></defs><g id="Layer_1-2"><polyline class="cls-1" points="64.74 0 75.42 1.79 88.32 8.56 96.4 17.11 102.12 26.7 105.02 36.71 106.33 45.4 106.33 53.54 106.68 66.52 104.4 79.28 101.09 88.32 93.57 99.22 85.77 105.71 76.94 110.47 68.52 113.02 59.69 114.05 53.9 114.47 38.58 114.47 38.58 85.7 55.55 85.56 60.79 83.42 64.66 80.31 68.73 75.28 70.8 69.9 72.25 61 71.83 47.26 69.9 40.57 64.86 33.6 59.62 30.43 53.55 28.64 35.61 28.64 35.61 186.4 197.86 186.4 197.86 115.07 153.77 0 193.65 0 215.36 72.76 239.06 0 276.27 0 232.63 114.85 232.63 186.4 330.77 186.4 330.77 0 399.44 0 408.03 .9 415.02 3.18 420.94 7.21 426.71 11.99 431.26 17.61 434.07 22.92 435.97 27.78 437.41 33.85 438.55 41.37 438.55 49.04 438.55 59.36 437.79 66.88 435.29 75.08 432.93 80.01 429.59 84.64 426.14 88.59 421.7 91.47 417.52 93.75 412.74 95.27 412.78 96.87 417.74 97.88 424.13 100.82 428.29 104.57 432.54 111.16 435.29 119.58 436.5 129.71 436.9 141.68 438.55 176.18 439.99 181.4 439.99 184.61 405.48 184.61 404.28 181.32 403.64 173.29 402.89 133.57 402.02 127.36 400.28 121.03 397.18 115.81 393.45 112.71 389.35 109.83 385.5 109.83 365.13 109.83 365.13 186.4 505.85 186.4 505.85 0 540.5 0 540.5 186.4 635.22 186.4 635.22 31.77 598.37 31.77 598.37 0 706.57 0 706.57 31.99 669.71 31.99 669.71 186.4 763.25 186.4 763.25 0 858.09 0 858.09 31.56 797.95 31.56 797.95 75.53 854.64 75.53 854.64 108.29 797.95 108.29 797.95 158.51 860.25 158.51 860.25 231.36 0 231.36 0 0"/></g></svg>